<svg width="24" height="24" viewBox="0 0 24 24" fill="none" xmlns="http://www.w3.org/2000/svg">
<path d="M9.93751 13.5L5.02501 13.1962C4.66872 13.1767 4.33104 13.0309 4.07262 12.7848C3.81419 12.5388 3.65195 12.2087 3.61501 11.8537L3.17626 7.65749C3.15411 7.44769 3.17646 7.23557 3.24186 7.035C3.30725 6.83442 3.41422 6.64989 3.55578 6.49347C3.69735 6.33704 3.87031 6.21224 4.06338 6.12721C4.25646 6.04217 4.4653 5.99883 4.67626 5.99999H19.335C19.546 5.99883 19.7548 6.04217 19.9479 6.12721C20.141 6.21224 20.3139 6.33704 20.4555 6.49347C20.5971 6.64989 20.704 6.83442 20.7694 7.035C20.8348 7.23557 20.8572 7.44769 20.835 7.65749L20.385 11.8537C20.3481 12.2087 20.1858 12.5388 19.9274 12.7848C19.669 13.0309 19.3313 13.1767 18.975 13.1962L14.0625 13.5" stroke="#FEFEFE"/>
<path d="M19.5 13.095V18C19.5 18.3978 19.342 18.7794 19.0607 19.0607C18.7794 19.342 18.3978 19.5 18 19.5H6C5.60218 19.5 5.22064 19.342 4.93934 19.0607C4.65804 18.7794 4.5 18.3978 4.5 18V13.0688" stroke="#FEFEFE"/>
<path d="M10.125 6V5.25C10.125 5.05109 10.204 4.86032 10.3447 4.71967C10.4853 4.57902 10.6761 4.5 10.875 4.5H13.125C13.3239 4.5 13.5147 4.57902 13.6553 4.71967C13.796 4.86032 13.875 5.05109 13.875 5.25V6" stroke="#FEFEFE"/>
<path d="M13.0312 12.4688H10.9688C10.3992 12.4688 9.9375 12.9305 9.9375 13.5C9.9375 14.0695 10.3992 14.5312 10.9688 14.5312H13.0312C13.6008 14.5312 14.0625 14.0695 14.0625 13.5C14.0625 12.9305 13.6008 12.4688 13.0312 12.4688Z" stroke="#FEFEFE"/>
</svg>
