<svg width="24" height="24" viewBox="0 0 24 24" fill="none" xmlns="http://www.w3.org/2000/svg">
<path d="M17.3257 20H6.67433C5.20246 20 4 18.7975 4 17.3257V6.67433C4 5.20246 5.20246 4 6.67433 4H17.3257C18.7975 4 20 5.20246 20 6.67433V17.3257C20 18.8041 18.8041 20 17.3257 20Z" stroke="#FEFEFE"/>
<path d="M9.09895 14.9076C9.87431 15.683 10.9059 16.1101 12.0033 16.1101C13.1006 16.1101 14.1256 15.683 14.9076 14.9076C15.6829 14.1322 16.11 13.1006 16.11 12.0033C16.11 10.906 15.6829 9.87434 14.9076 9.09898C14.1322 8.32362 13.1006 7.89651 12.0033 7.89651C10.9059 7.89651 9.87431 8.32362 9.09895 9.09898C8.32359 9.87434 7.89648 10.906 7.89648 12.0033C7.89648 13.1006 8.32359 14.1322 9.09895 14.9076Z" stroke="#FEFEFE"/>
<path d="M16.9106 7.76155C17.3461 7.76155 17.6991 7.40852 17.6991 6.97303C17.6991 6.53754 17.3461 6.18451 16.9106 6.18451C16.4751 6.18451 16.1221 6.53754 16.1221 6.97303C16.1221 7.40852 16.4751 7.76155 16.9106 7.76155Z" stroke="#FEFEFE"/>
</svg>
