<svg width="24" height="24" viewBox="0 0 24 24" fill="none" xmlns="http://www.w3.org/2000/svg">
<path d="M7.27005 9.26144H3.92676V19.923H7.27005V9.26144Z" stroke="#FEFEFE"/>
<path d="M16.3141 9.03033C16.1908 9.01492 16.0599 9.00722 15.9289 8.99951C14.057 8.92248 13.0016 10.0318 12.6319 10.5094C12.5317 10.6403 12.4855 10.7174 12.4855 10.7174V9.29224H9.28857V19.9538H12.4855H12.6319C12.6319 18.8676 12.6319 17.7891 12.6319 16.7029C12.6319 16.1175 12.6319 15.532 12.6319 14.9466C12.6319 14.2224 12.5779 13.4521 12.94 12.7896C13.2481 12.235 13.8028 11.9576 14.4268 11.9576C16.2756 11.9576 16.3141 13.6293 16.3141 13.7833C16.3141 13.791 16.3141 13.7987 16.3141 13.7987V20H19.6574V13.0438C19.6574 10.6635 18.4479 9.26143 16.3141 9.03033Z" stroke="#FEFEFE"/>
<path d="M5.59849 7.88253C6.67062 7.88253 7.53975 7.01339 7.53975 5.94126C7.53975 4.86913 6.67062 4 5.59849 4C4.52636 4 3.65723 4.86913 3.65723 5.94126C3.65723 7.01339 4.52636 7.88253 5.59849 7.88253Z" stroke="#FEFEFE"/>
</svg>
