<svg width="24" height="24" viewBox="0 0 24 24" fill="none" xmlns="http://www.w3.org/2000/svg">
<path d="M10.5 16.5H7.5C6.30653 16.5 5.16193 16.0259 4.31802 15.182C3.47411 14.3381 3 13.1935 3 12C3 10.8065 3.47411 9.66193 4.31802 8.81802C5.16193 7.97411 6.30653 7.5 7.5 7.5H10.5" stroke="#FEFEFE"/>
<path d="M13.5 7.5H16.5C17.6935 7.5 18.8381 7.97411 19.682 8.81802C20.5259 9.66193 21 10.8065 21 12C21 13.1935 20.5259 14.3381 19.682 15.182C18.8381 16.0259 17.6935 16.5 16.5 16.5H13.5" stroke="#FEFEFE"/>
<path d="M7.5 12H16.5" stroke="#FEFEFE"/>
</svg>
