<svg width="1014" height="1014" viewBox="0 0 1014 1014" fill="none" xmlns="http://www.w3.org/2000/svg">
<path d="M475 342.5L698.5 169.5L595 168.5L464.5 269.5C454.544 278.087 448.961 277.941 439 269.5L326 182.5C288.5 153 233 174.5 233 227V538.5C233 585 279.5 619 327 583L714 285.5V476.5C702.913 516.07 689.678 526.593 649 517L581 465.5C565.751 456.698 556.758 455.847 539.5 465.5L313.5 640H418.5L547 540C558.359 531.951 564.148 532.098 573.5 540L684.5 625C725 658.5 772.5 630.5 779 589V265C779 224.5 736 199.5 698.5 216.5L299 521.5V330C309.328 291.126 324.564 284.068 366.5 294.5L429.5 342.5C446.255 353.795 456.257 353.319 475 342.5Z" fill="#FBFBFB" stroke="#878787"/>
<circle cx="895.5" cy="399" r="36.5" fill="#CC0118"/>
<circle cx="116.5" cy="396" r="36.5" fill="#CC0118"/>
<mask id="path-4-outside-1_618_2" maskUnits="userSpaceOnUse" x="288.5" y="744.5" width="430" height="104" fill="black">
<rect fill="white" x="288.5" y="744.5" width="430" height="104"/>
<path d="M322.68 845.5H299.3V799.44C299.3 794.027 298.927 790.107 298.18 787.68C296.967 783.293 294.4 780.633 290.48 779.7V776.62H322.68V845.5ZM322.26 758.28C322.26 761.733 321.047 764.673 318.62 767.1C316.193 769.527 313.3 770.74 309.94 770.74C306.487 770.74 303.547 769.527 301.12 767.1C298.787 764.673 297.62 761.733 297.62 758.28C297.62 754.92 298.787 752.027 301.12 749.6C303.547 747.173 306.487 745.96 309.94 745.96C313.3 745.96 316.193 747.173 318.62 749.6C321.047 752.027 322.26 754.92 322.26 758.28ZM465.629 747.64L425.869 845.5H401.229L369.589 770.88C366.882 764.627 364.689 760.287 363.009 757.86C360.395 754.22 357.175 751.84 353.349 750.72V747.64H388.069L412.569 812.46C413.409 814.793 414.109 817.5 414.669 820.58H414.949C415.322 818.247 416.022 815.493 417.049 812.32V812.46L439.729 747.64H465.629ZM534.85 826.88V814.14C524.583 814.233 519.45 817.64 519.45 824.36C519.45 828.933 521.783 831.22 526.45 831.22C530.557 831.22 533.357 829.773 534.85 826.88ZM566.07 829.96V842.7C561.683 845.687 556.503 847.18 550.53 847.18C543.903 847.18 539.61 844.753 537.65 839.9C535.69 842.233 532.75 844.1 528.83 845.5C525.563 846.62 522.39 847.18 519.31 847.18C513.057 847.18 507.923 845.827 503.91 843.12C499.057 839.76 496.63 834.58 496.63 827.58C496.63 819.367 500.69 813.02 508.81 808.54C515.717 804.713 524.397 802.66 534.85 802.38V799.44C534.85 794.307 531.63 791.74 525.19 791.74C516.977 791.74 509.183 794.587 501.81 800.28V782.22C509.65 777.367 519.31 774.94 530.79 774.94C539.097 774.94 545.397 776.573 549.69 779.84C555.383 784.133 558.23 791.553 558.23 802.1V827.44C558.23 830.147 559.257 831.5 561.31 831.5C562.99 831.5 564.577 830.987 566.07 829.96ZM656.041 779.7L651.421 797.2C648.807 794.96 645.494 793.84 641.481 793.84C636.814 793.84 633.267 795.52 630.841 798.88C628.601 801.867 627.481 805.833 627.481 810.78V845.5H603.961V799.44C603.961 794.027 603.634 790.107 602.981 787.68C601.767 783.387 599.201 780.727 595.281 779.7V776.62H625.241L625.941 784.6C629.674 778.253 635.227 775.08 642.601 775.08C648.201 775.08 652.681 776.62 656.041 779.7ZM716.868 845.5H693.488V799.44C693.488 794.027 693.114 790.107 692.368 787.68C691.154 783.293 688.588 780.633 684.668 779.7V776.62H716.868V845.5ZM716.448 758.28C716.448 761.733 715.234 764.673 712.808 767.1C710.381 769.527 707.488 770.74 704.128 770.74C700.674 770.74 697.734 769.527 695.308 767.1C692.974 764.673 691.808 761.733 691.808 758.28C691.808 754.92 692.974 752.027 695.308 749.6C697.734 747.173 700.674 745.96 704.128 745.96C707.488 745.96 710.381 747.173 712.808 749.6C715.234 752.027 716.448 754.92 716.448 758.28Z"/>
</mask>
<path d="M322.68 845.5H299.3V799.44C299.3 794.027 298.927 790.107 298.18 787.68C296.967 783.293 294.4 780.633 290.48 779.7V776.62H322.68V845.5ZM322.26 758.28C322.26 761.733 321.047 764.673 318.62 767.1C316.193 769.527 313.3 770.74 309.94 770.74C306.487 770.74 303.547 769.527 301.12 767.1C298.787 764.673 297.62 761.733 297.62 758.28C297.62 754.92 298.787 752.027 301.12 749.6C303.547 747.173 306.487 745.96 309.94 745.96C313.3 745.96 316.193 747.173 318.62 749.6C321.047 752.027 322.26 754.92 322.26 758.28ZM465.629 747.64L425.869 845.5H401.229L369.589 770.88C366.882 764.627 364.689 760.287 363.009 757.86C360.395 754.22 357.175 751.84 353.349 750.72V747.64H388.069L412.569 812.46C413.409 814.793 414.109 817.5 414.669 820.58H414.949C415.322 818.247 416.022 815.493 417.049 812.32V812.46L439.729 747.64H465.629ZM534.85 826.88V814.14C524.583 814.233 519.45 817.64 519.45 824.36C519.45 828.933 521.783 831.22 526.45 831.22C530.557 831.22 533.357 829.773 534.85 826.88ZM566.07 829.96V842.7C561.683 845.687 556.503 847.18 550.53 847.18C543.903 847.18 539.61 844.753 537.65 839.9C535.69 842.233 532.75 844.1 528.83 845.5C525.563 846.62 522.39 847.18 519.31 847.18C513.057 847.18 507.923 845.827 503.91 843.12C499.057 839.76 496.63 834.58 496.63 827.58C496.63 819.367 500.69 813.02 508.81 808.54C515.717 804.713 524.397 802.66 534.85 802.38V799.44C534.85 794.307 531.63 791.74 525.19 791.74C516.977 791.74 509.183 794.587 501.81 800.28V782.22C509.65 777.367 519.31 774.94 530.79 774.94C539.097 774.94 545.397 776.573 549.69 779.84C555.383 784.133 558.23 791.553 558.23 802.1V827.44C558.23 830.147 559.257 831.5 561.31 831.5C562.99 831.5 564.577 830.987 566.07 829.96ZM656.041 779.7L651.421 797.2C648.807 794.96 645.494 793.84 641.481 793.84C636.814 793.84 633.267 795.52 630.841 798.88C628.601 801.867 627.481 805.833 627.481 810.78V845.5H603.961V799.44C603.961 794.027 603.634 790.107 602.981 787.68C601.767 783.387 599.201 780.727 595.281 779.7V776.62H625.241L625.941 784.6C629.674 778.253 635.227 775.08 642.601 775.08C648.201 775.08 652.681 776.62 656.041 779.7ZM716.868 845.5H693.488V799.44C693.488 794.027 693.114 790.107 692.368 787.68C691.154 783.293 688.588 780.633 684.668 779.7V776.62H716.868V845.5ZM716.448 758.28C716.448 761.733 715.234 764.673 712.808 767.1C710.381 769.527 707.488 770.74 704.128 770.74C700.674 770.74 697.734 769.527 695.308 767.1C692.974 764.673 691.808 761.733 691.808 758.28C691.808 754.92 692.974 752.027 695.308 749.6C697.734 747.173 700.674 745.96 704.128 745.96C707.488 745.96 710.381 747.173 712.808 749.6C715.234 752.027 716.448 754.92 716.448 758.28Z" fill="#FBFBFB"/>
<path d="M322.68 845.5V846.5H323.68V845.5H322.68ZM299.3 845.5H298.3V846.5H299.3V845.5ZM298.18 787.68L297.216 787.947L297.22 787.96L297.224 787.974L298.18 787.68ZM290.48 779.7H289.48V780.49L290.248 780.673L290.48 779.7ZM290.48 776.62V775.62H289.48V776.62H290.48ZM322.68 776.62H323.68V775.62H322.68V776.62ZM318.62 767.1L319.327 767.807L319.327 767.807L318.62 767.1ZM301.12 767.1L300.399 767.793L300.406 767.8L300.413 767.807L301.12 767.1ZM301.12 749.6L300.413 748.893L300.406 748.9L300.399 748.907L301.12 749.6ZM318.62 749.6L319.327 748.893L319.327 748.893L318.62 749.6ZM322.68 844.5H299.3V846.5H322.68V844.5ZM300.3 845.5V799.44H298.3V845.5H300.3ZM300.3 799.44C300.3 794.013 299.929 789.965 299.136 787.386L297.224 787.974C297.924 790.248 298.3 794.04 298.3 799.44H300.3ZM299.144 787.413C297.849 782.731 295.039 779.757 290.712 778.727L290.248 780.673C293.761 781.509 296.085 783.856 297.216 787.947L299.144 787.413ZM291.48 779.7V776.62H289.48V779.7H291.48ZM290.48 777.62H322.68V775.62H290.48V777.62ZM321.68 776.62V845.5H323.68V776.62H321.68ZM321.26 758.28C321.26 761.47 320.151 764.155 317.913 766.393L319.327 767.807C321.943 765.192 323.26 761.997 323.26 758.28H321.26ZM317.913 766.393C315.669 768.637 313.028 769.74 309.94 769.74V771.74C313.572 771.74 316.717 770.417 319.327 767.807L317.913 766.393ZM309.94 769.74C306.75 769.74 304.065 768.631 301.827 766.393L300.413 767.807C303.028 770.423 306.223 771.74 309.94 771.74V769.74ZM301.841 766.407C299.692 764.172 298.62 761.482 298.62 758.28H296.62C296.62 761.984 297.882 765.175 300.399 767.793L301.841 766.407ZM298.62 758.28C298.62 755.179 299.686 752.534 301.841 750.293L300.399 748.907C297.887 751.519 296.62 754.661 296.62 758.28H298.62ZM301.827 750.307C304.065 748.069 306.75 746.96 309.94 746.96V744.96C306.223 744.96 303.028 746.277 300.413 748.893L301.827 750.307ZM309.94 746.96C313.028 746.96 315.669 748.063 317.913 750.307L319.327 748.893C316.717 746.283 313.572 744.96 309.94 744.96V746.96ZM317.913 750.307C320.157 752.551 321.26 755.191 321.26 758.28H323.26C323.26 754.648 321.937 751.503 319.327 748.893L317.913 750.307ZM465.629 747.64L466.555 748.016L467.114 746.64H465.629V747.64ZM425.869 845.5V846.5H426.542L426.795 845.876L425.869 845.5ZM401.229 845.5L400.308 845.89L400.567 846.5H401.229V845.5ZM369.589 770.88L370.509 770.49L370.506 770.483L369.589 770.88ZM363.009 757.86L363.831 757.291L363.826 757.284L363.821 757.277L363.009 757.86ZM353.349 750.72H352.349V751.469L353.068 751.68L353.349 750.72ZM353.349 747.64V746.64H352.349V747.64H353.349ZM388.069 747.64L389.004 747.286L388.76 746.64H388.069V747.64ZM412.569 812.46L413.51 812.121L413.507 812.114L413.504 812.106L412.569 812.46ZM414.669 820.58L413.685 820.759L413.834 821.58H414.669V820.58ZM414.949 820.58V821.58H415.801L415.936 820.738L414.949 820.58ZM417.049 812.32H418.049L416.097 812.012L417.049 812.32ZM417.049 812.46H416.049L417.993 812.79L417.049 812.46ZM439.729 747.64V746.64H439.019L438.785 747.31L439.729 747.64ZM464.702 747.264L424.942 845.124L426.795 845.876L466.555 748.016L464.702 747.264ZM425.869 844.5H401.229V846.5H425.869V844.5ZM402.149 845.11L370.509 770.49L368.668 771.27L400.308 845.89L402.149 845.11ZM370.506 770.483C367.799 764.227 365.572 759.806 363.831 757.291L362.187 758.429C363.805 760.767 365.966 765.027 368.671 771.277L370.506 770.483ZM363.821 757.277C361.095 753.479 357.697 750.951 353.63 749.76L353.068 751.68C356.654 752.729 359.696 754.961 362.196 758.443L363.821 757.277ZM354.349 750.72V747.64H352.349V750.72H354.349ZM353.349 748.64H388.069V746.64H353.349V748.64ZM387.133 747.994L411.633 812.814L413.504 812.106L389.004 747.286L387.133 747.994ZM411.628 812.799C412.445 815.069 413.132 817.72 413.685 820.759L415.653 820.401C415.085 817.28 414.372 814.518 413.51 812.121L411.628 812.799ZM414.669 821.58H414.949V819.58H414.669V821.58ZM415.936 820.738C416.299 818.471 416.983 815.77 418 812.628L416.097 812.012C415.061 815.216 414.345 818.022 413.961 820.422L415.936 820.738ZM416.049 812.32V812.46H418.049V812.32H416.049ZM417.993 812.79L440.673 747.97L438.785 747.31L416.105 812.13L417.993 812.79ZM439.729 748.64H465.629V746.64H439.729V748.64ZM534.85 826.88L535.739 827.339L535.85 827.123V826.88H534.85ZM534.85 814.14H535.85V813.131L534.841 813.14L534.85 814.14ZM566.07 829.96H567.07V828.059L565.503 829.136L566.07 829.96ZM566.07 842.7L566.633 843.527L567.07 843.229V842.7H566.07ZM537.65 839.9L538.577 839.526L537.954 837.983L536.884 839.257L537.65 839.9ZM528.83 845.5L529.154 846.446L529.166 846.442L528.83 845.5ZM503.91 843.12L503.341 843.942L503.351 843.949L503.91 843.12ZM508.81 808.54L509.293 809.416L509.295 809.415L508.81 808.54ZM534.85 802.38L534.877 803.38L535.85 803.354V802.38H534.85ZM501.81 800.28H500.81V802.316L502.421 801.072L501.81 800.28ZM501.81 782.22L501.284 781.37L500.81 781.663V782.22H501.81ZM549.69 779.84L549.084 780.636L549.088 780.638L549.69 779.84ZM535.85 826.88V814.14H533.85V826.88H535.85ZM534.841 813.14C529.63 813.187 525.55 814.072 522.747 815.932C519.872 817.839 518.45 820.701 518.45 824.36H520.45C520.45 821.299 521.594 819.097 523.853 817.598C526.183 816.052 529.804 815.186 534.859 815.14L534.841 813.14ZM518.45 824.36C518.45 826.806 519.075 828.823 520.5 830.219C521.921 831.612 523.968 832.22 526.45 832.22V830.22C524.266 830.22 522.812 829.685 521.9 828.791C520.991 827.9 520.45 826.487 520.45 824.36H518.45ZM526.45 832.22C530.815 832.22 534.026 830.656 535.739 827.339L533.961 826.421C532.687 828.89 530.298 830.22 526.45 830.22V832.22ZM565.07 829.96V842.7H567.07V829.96H565.07ZM565.507 841.873C561.307 844.733 556.329 846.18 550.53 846.18V848.18C556.678 848.18 562.06 846.64 566.633 843.527L565.507 841.873ZM550.53 846.18C547.332 846.18 544.786 845.594 542.832 844.489C540.895 843.395 539.478 841.756 538.577 839.526L536.723 840.274C537.782 842.897 539.492 844.899 541.848 846.231C544.188 847.553 547.101 848.18 550.53 848.18V846.18ZM536.884 839.257C535.073 841.413 532.305 843.197 528.494 844.558L529.166 846.442C533.195 845.003 536.307 843.053 538.416 840.543L536.884 839.257ZM528.506 844.554C525.331 845.643 522.267 846.18 519.31 846.18V848.18C522.513 848.18 525.796 847.597 529.154 846.446L528.506 844.554ZM519.31 846.18C513.198 846.18 508.275 844.858 504.469 842.291L503.351 843.949C507.571 846.796 512.915 848.18 519.31 848.18V846.18ZM504.479 842.298C499.948 839.161 497.63 834.322 497.63 827.58H495.63C495.63 834.838 498.165 840.359 503.341 843.942L504.479 842.298ZM497.63 827.58C497.63 819.785 501.442 813.747 509.293 809.416L508.327 807.664C499.938 812.293 495.63 818.949 495.63 827.58H497.63ZM509.295 809.415C516.023 805.687 524.534 803.657 534.877 803.38L534.823 801.38C524.259 801.663 515.41 803.74 508.325 807.665L509.295 809.415ZM535.85 802.38V799.44H533.85V802.38H535.85ZM535.85 799.44C535.85 796.651 534.964 794.402 533.058 792.883C531.196 791.398 528.516 790.74 525.19 790.74V792.74C528.304 792.74 530.454 793.365 531.812 794.447C533.126 795.495 533.85 797.095 533.85 799.44H535.85ZM525.19 790.74C516.726 790.74 508.723 793.679 501.199 799.488L502.421 801.072C509.644 795.494 517.227 792.74 525.19 792.74V790.74ZM502.81 800.28V782.22H500.81V800.28H502.81ZM502.336 783.07C509.984 778.336 519.451 775.94 530.79 775.94V773.94C519.169 773.94 509.316 776.397 501.284 781.37L502.336 783.07ZM530.79 775.94C538.989 775.94 545.037 777.556 549.084 780.636L550.296 779.044C545.757 775.591 539.204 773.94 530.79 773.94V775.94ZM549.088 780.638C554.428 784.665 557.23 791.711 557.23 802.1H559.23C559.23 791.396 556.339 783.602 550.292 779.042L549.088 780.638ZM557.23 802.1V827.44H559.23V802.1H557.23ZM557.23 827.44C557.23 828.891 557.5 830.163 558.203 831.089C558.946 832.068 560.044 832.5 561.31 832.5V830.5C560.523 830.5 560.081 830.255 559.797 829.881C559.473 829.454 559.23 828.695 559.23 827.44H557.23ZM561.31 832.5C563.208 832.5 564.99 831.916 566.637 830.784L565.503 829.136C564.163 830.057 562.772 830.5 561.31 830.5V832.5ZM656.041 779.7L657.008 779.955L657.162 779.371L656.717 778.963L656.041 779.7ZM651.421 797.2L650.77 797.959L651.981 798.997L652.388 797.455L651.421 797.2ZM630.841 798.88L631.641 799.48L631.646 799.473L631.651 799.465L630.841 798.88ZM627.481 845.5V846.5H628.481V845.5H627.481ZM603.961 845.5H602.961V846.5H603.961V845.5ZM602.981 787.68L603.946 787.42L603.943 787.408L602.981 787.68ZM595.281 779.7H594.281V780.472L595.027 780.667L595.281 779.7ZM595.281 776.62V775.62H594.281V776.62H595.281ZM625.241 776.62L626.237 776.533L626.157 775.62H625.241V776.62ZM625.941 784.6L624.945 784.687L625.218 787.801L626.803 785.107L625.941 784.6ZM655.074 779.445L650.454 796.945L652.388 797.455L657.008 779.955L655.074 779.445ZM652.072 796.441C649.248 794.02 645.691 792.84 641.481 792.84V794.84C645.297 794.84 648.367 795.9 650.77 797.959L652.072 796.441ZM641.481 792.84C636.54 792.84 632.671 794.639 630.03 798.295L631.651 799.465C633.864 796.401 637.089 794.84 641.481 794.84V792.84ZM630.041 798.28C627.634 801.488 626.481 805.687 626.481 810.78H628.481C628.481 805.98 629.567 802.245 631.641 799.48L630.041 798.28ZM626.481 810.78V845.5H628.481V810.78H626.481ZM627.481 844.5H603.961V846.5H627.481V844.5ZM604.961 845.5V799.44H602.961V845.5H604.961ZM604.961 799.44C604.961 794.016 604.636 789.983 603.946 787.42L602.015 787.94C602.632 790.231 602.961 794.038 602.961 799.44H604.961ZM603.943 787.408C602.645 782.815 599.837 779.86 595.534 778.733L595.027 780.667C598.565 781.594 600.89 783.958 602.018 787.952L603.943 787.408ZM596.281 779.7V776.62H594.281V779.7H596.281ZM595.281 777.62H625.241V775.62H595.281V777.62ZM624.245 776.707L624.945 784.687L626.937 784.513L626.237 776.533L624.245 776.707ZM626.803 785.107C630.356 779.066 635.581 776.08 642.601 776.08V774.08C634.874 774.08 628.992 777.44 625.079 784.093L626.803 785.107ZM642.601 776.08C648.011 776.08 652.229 777.563 655.365 780.437L656.717 778.963C653.132 775.677 648.391 774.08 642.601 774.08V776.08ZM716.868 845.5V846.5H717.868V845.5H716.868ZM693.488 845.5H692.488V846.5H693.488V845.5ZM692.368 787.68L691.404 787.947L691.408 787.96L691.412 787.974L692.368 787.68ZM684.668 779.7H683.668V780.49L684.436 780.673L684.668 779.7ZM684.668 776.62V775.62H683.668V776.62H684.668ZM716.868 776.62H717.868V775.62H716.868V776.62ZM712.808 767.1L713.515 767.807L713.515 767.807L712.808 767.1ZM695.308 767.1L694.587 767.793L694.593 767.8L694.6 767.807L695.308 767.1ZM695.308 749.6L694.6 748.893L694.593 748.9L694.587 748.907L695.308 749.6ZM712.808 749.6L713.515 748.893L713.515 748.893L712.808 749.6ZM716.868 844.5H693.488V846.5H716.868V844.5ZM694.488 845.5V799.44H692.488V845.5H694.488ZM694.488 799.44C694.488 794.013 694.117 789.965 693.323 787.386L691.412 787.974C692.111 790.248 692.488 794.04 692.488 799.44H694.488ZM693.331 787.413C692.036 782.731 689.226 779.757 684.899 778.727L684.436 780.673C687.949 781.509 690.272 783.856 691.404 787.947L693.331 787.413ZM685.668 779.7V776.62H683.668V779.7H685.668ZM684.668 777.62H716.868V775.62H684.668V777.62ZM715.868 776.62V845.5H717.868V776.62H715.868ZM715.448 758.28C715.448 761.47 714.338 764.155 712.1 766.393L713.515 767.807C716.13 765.192 717.448 761.997 717.448 758.28H715.448ZM712.1 766.393C709.857 768.637 707.216 769.74 704.128 769.74V771.74C707.759 771.74 710.905 770.417 713.515 767.807L712.1 766.393ZM704.128 769.74C700.938 769.74 698.252 768.631 696.015 766.393L694.6 767.807C697.216 770.423 700.411 771.74 704.128 771.74V769.74ZM696.028 766.407C693.879 764.172 692.808 761.482 692.808 758.28H690.808C690.808 761.984 692.069 765.175 694.587 767.793L696.028 766.407ZM692.808 758.28C692.808 755.179 693.874 752.534 696.028 750.293L694.587 748.907C692.075 751.519 690.808 754.661 690.808 758.28H692.808ZM696.015 750.307C698.252 748.069 700.938 746.96 704.128 746.96V744.96C700.411 744.96 697.216 746.277 694.6 748.893L696.015 750.307ZM704.128 746.96C707.216 746.96 709.857 748.063 712.1 750.307L713.515 748.893C710.905 746.283 707.759 744.96 704.128 744.96V746.96ZM712.1 750.307C714.344 752.551 715.448 755.191 715.448 758.28H717.448C717.448 754.648 716.124 751.503 713.515 748.893L712.1 750.307Z" fill="#878787" mask="url(#path-4-outside-1_618_2)"/>
<circle cx="702.5" cy="759.5" r="14" fill="#CC0118"/>
<circle cx="308.5" cy="759.5" r="14" fill="#CC0118"/>
</svg>
